<svg width="32" height="32" viewBox="0 0 32 32" fill="none" xmlns="http://www.w3.org/2000/svg">
  <!-- 別案：立体感＋光沢＋床の反射を加えたリッチな3段階段アイコン -->
  <defs>
    <linearGradient id="stair1" x1="0" y1="24" x2="0" y2="28" gradientUnits="userSpaceOnUse">
      <stop offset="0%" stop-color="#42a5f5"/>
      <stop offset="100%" stop-color="#1976d2"/>
    </linearGradient>
    <linearGradient id="stair2" x1="0" y1="16" x2="0" y2="20" gradientUnits="userSpaceOnUse">
      <stop offset="0%" stop-color="#90caf9"/>
      <stop offset="100%" stop-color="#42a5f5"/>
    </linearGradient>
    <linearGradient id="stair3" x1="0" y1="8" x2="0" y2="12" gradientUnits="userSpaceOnUse">
      <stop offset="0%" stop-color="#e3f2fd"/>
      <stop offset="100%" stop-color="#90caf9"/>
    </linearGradient>
    <linearGradient id="shine" x1="0" y1="0" x2="1" y2="1">
      <stop offset="0%" stop-color="#fff" stop-opacity="0.7"/>
      <stop offset="100%" stop-color="#fff" stop-opacity="0"/>
    </linearGradient>
  </defs>
  <g>
    <!-- 本体 -->
    <rect x="4" y="24" width="24" height="4" rx="1" fill="url(#stair1)"/>
    <rect x="10" y="16" width="18" height="4" rx="1" fill="url(#stair2)"/>
    <rect x="16" y="8" width="12" height="4" rx="1" fill="url(#stair3)"/>
    <!-- 光沢 -->
    <rect x="4" y="24" width="24" height="2" rx="1" fill="url(#shine)"/>
    <rect x="10" y="16" width="18" height="2" rx="1" fill="url(#shine)"/>
    <rect x="16" y="8" width="12" height="2" rx="1" fill="url(#shine)"/>
    <!-- 床の反射 -->
    <rect x="4" y="28" width="24" height="2" rx="1" fill="#90caf9" fill-opacity="0.25"/>
    <rect x="10" y="20" width="18" height="2" rx="1" fill="#e3f2fd" fill-opacity="0.18"/>
    <rect x="16" y="12" width="12" height="2" rx="1" fill="#fff" fill-opacity="0.12"/>
    <!-- 輪郭線 -->
    <rect x="4" y="24" width="24" height="4" rx="1" fill="none" stroke="#1565c0" stroke-width="1"/>
    <rect x="10" y="16" width="18" height="4" rx="1" fill="none" stroke="#42a5f5" stroke-width="1"/>
    <rect x="16" y="8" width="12" height="4" rx="1" fill="none" stroke="#90caf9" stroke-width="1"/>
  </g>
</svg>
